<?xml version="1.0" standalone="no"?>
<!DOCTYPE svg PUBLIC "-//W3C//DTD SVG 20010904//EN"
 "http://www.w3.org/TR/2001/REC-SVG-20010904/DTD/svg10.dtd">
<svg version="1.0" xmlns="http://www.w3.org/2000/svg"
 width="180.000000pt" height="180.000000pt" viewBox="0 0 180.000000 180.000000"
 preserveAspectRatio="xMidYMid meet">
<metadata>
Created by potrace 1.14, written by Peter Selinger 2001-2017
</metadata>
<g transform="translate(0.000000,180.000000) scale(0.100000,-0.100000)"
fill="#000000" stroke="none">
<path d="M490 1498 l0 -144 -67 -29 c-48 -20 -89 -49 -136 -95 -87 -83 -107
-116 -123 -203 -38 -199 4 -345 135 -470 54 -52 146 -107 179 -107 9 0 12 -37
12 -151 0 -111 3 -150 12 -147 18 6 1157 732 1157 738 1 5 -1142 742 -1159
748 -6 2 -10 -53 -10 -140z"/>
</g>
</svg>
