<?xml version="1.0" standalone="no"?>
<!DOCTYPE svg PUBLIC "-//W3C//DTD SVG 20010904//EN"
 "http://www.w3.org/TR/2001/REC-SVG-20010904/DTD/svg10.dtd">
<svg version="1.0" xmlns="http://www.w3.org/2000/svg"
 width="2048.000000pt" height="2048.000000pt" viewBox="0 0 2048.000000 2048.000000"
 preserveAspectRatio="xMidYMid meet">
<metadata>
Created by potrace 1.14, written by Peter Selinger 2001-2017
</metadata>
<g transform="translate(0.000000,2048.000000) scale(0.100000,-0.100000)"
fill="#000000" stroke="none">
<path d="M6490 13297 l0 -5992 407 -408 408 -407 2230 0 2230 0 413 413 412
412 0 3425 0 3425 693 693 692 692 1885 0 1885 1 -1875 1869 -1875 1869 -3752
1 -3753 0 0 -5993z"/>
<path d="M2858 15664 l-1678 -1680 0 -3750 0 -3749 2647 -2647 2648 -2648
1175 0 1175 0 2708 2708 2707 2707 0 3430 0 3430 267 267 268 268 2255 1 2255
0 -390 385 -390 384 -2060 0 -2060 0 -483 -483 -482 -482 0 -3390 0 -3390
-1242 -1242 -1243 -1243 -2225 0 -2225 0 -973 973 -972 972 -2 5430 -3 5430
-1677 -1681z"/>
<path d="M15102 13137 l-72 -72 0 -3390 0 -3390 -2547 -2547 -2548 -2548 2021
0 2021 0 2647 2650 2646 2650 0 3360 0 3360 -2048 0 -2048 0 -72 -73z"/>
</g>
</svg>
